<svg xmlns="http://www.w3.org/2000/svg" viewBox="0 0 64 64"><rect width="64" height="64" rx="14" fill="#000"/><g transform="translate(4 4) scale(.875)"><defs><radialGradient id="b" cx="0.35" cy="0.28" r="0.85"><stop offset="0" stop-color="#fff"/><stop offset="0.35" stop-color="#c9c9d0"/><stop offset="0.8" stop-color="#6a6a72"/><stop offset="1" stop-color="#3a3a40"/></radialGradient><linearGradient id="l" x1="0" y1="0" x2="0" y2="64" gradientUnits="userSpaceOnUse"><stop offset="0" stop-color="#f4f4f6"/><stop offset="0.5" stop-color="#c2c2c9"/><stop offset="1" stop-color="#85858d"/></linearGradient></defs><g fill="none" stroke="url(#l)" stroke-linecap="round" stroke-linejoin="round"><path d="M29.6 25.2 L22.5 14.5" stroke-width="2.3"/><path d="M22.5 14.5 L19.2 6.5" stroke-width="1.55"/><path d="M19.2 6.5 L18.6 0.8" stroke-width="0.95"/><path d="M28.9 27.4 L17.5 19.5" stroke-width="2.3"/><path d="M17.5 19.5 L10.5 13.2" stroke-width="1.55"/><path d="M10.5 13.2 L5.6 8.6" stroke-width="0.95"/><path d="M28.9 30.6 L17 32.2" stroke-width="2.3"/><path d="M17 32.2 L10.2 38.6" stroke-width="1.55"/><path d="M10.2 38.6 L5.4 45.8" stroke-width="0.95"/><path d="M29.6 33.2 L21.2 41.2" stroke-width="2.3"/><path d="M21.2 41.2 L17.4 51.2" stroke-width="1.55"/><path d="M17.4 51.2 L16.4 62" stroke-width="0.95"/><path d="M34.4 25.2 L41.5 14.5" stroke-width="2.3"/><path d="M41.5 14.5 L44.8 6.5" stroke-width="1.55"/><path d="M44.8 6.5 L45.4 0.8" stroke-width="0.95"/><path d="M35.1 27.4 L46.5 19.5" stroke-width="2.3"/><path d="M46.5 19.5 L53.5 13.2" stroke-width="1.55"/><path d="M53.5 13.2 L58.4 8.6" stroke-width="0.95"/><path d="M35.1 30.6 L47 32.2" stroke-width="2.3"/><path d="M47 32.2 L53.8 38.6" stroke-width="1.55"/><path d="M53.8 38.6 L58.6 45.8" stroke-width="0.95"/><path d="M34.4 33.2 L42.8 41.2" stroke-width="2.3"/><path d="M42.8 41.2 L46.6 51.2" stroke-width="1.55"/><path d="M46.6 51.2 L47.6 62" stroke-width="0.95"/></g><ellipse cx="32" cy="42" rx="6.9" ry="10" fill="url(#b)"/><path d="M32 34.5 V50 M28.4 39 L32 41.6 L35.6 39 M29 44.2 L32 46.6 L35 44.2" stroke="#2c2c31" stroke-width="0.75" fill="none" stroke-linecap="round" opacity="0.55"/><ellipse cx="32" cy="28.8" rx="4.6" ry="5" fill="url(#b)"/><path d="M30.6 24.2 L29.9 22 M33.4 24.2 L34.1 22" stroke="#d9d9df" stroke-width="1.2" stroke-linecap="round"/></g></svg>
